<svg xmlns="http://www.w3.org/2000/svg" width="72" height="72" viewBox="0 0 72 72">
  <g id="Feature_Icon_4" data-name="Feature Icon 4" transform="translate(17857.258 84.972)">
    <rect id="Rectangle_232" data-name="Rectangle 232" width="72" height="72" rx="36" transform="translate(-17857.258 -84.972)" fill="#fff7f2"/>
    <path id="Path_863" data-name="Path 863" d="M198.667,416v10.667" transform="translate(-18009.258 -464.972)" fill="none" stroke="#ffbc8b" stroke-linecap="round" stroke-linejoin="round" stroke-width="2"/>
    <path id="Path_864" data-name="Path 864" d="M191.6,419.56v7.106" transform="translate(-18009.258 -464.972)" fill="none" stroke="#ffbc8b" stroke-linecap="round" stroke-linejoin="round" stroke-width="2"/>
    <path id="Path_865" data-name="Path 865" d="M177.333,422.667v4" transform="translate(-18009.258 -464.972)" fill="none" stroke="#ffbc8b" stroke-linecap="round" stroke-linejoin="round" stroke-width="2"/>
    <path id="Path_866" data-name="Path 866" d="M184.4,418.133v8.534" transform="translate(-18009.258 -464.972)" fill="none" stroke="#ffbc8b" stroke-linecap="round" stroke-linejoin="round" stroke-width="2"/>
    <path id="Path_867" data-name="Path 867" d="M193.253,411.345a2.333,2.333,0,1,1-3.3,0A2.333,2.333,0,0,1,193.253,411.345Z" transform="translate(-18009.258 -464.972)" fill="none" stroke="#ffbc8b" stroke-linecap="round" stroke-linejoin="round" stroke-width="2"/>
    <path id="Path_868" data-name="Path 868" d="M200.457,405.341a2.333,2.333,0,1,1-3.3,0A2.333,2.333,0,0,1,200.457,405.341Z" transform="translate(-18009.258 -464.972)" fill="none" stroke="#ffbc8b" stroke-linecap="round" stroke-linejoin="round" stroke-width="2"/>
    <path id="Path_869" data-name="Path 869" d="M178.843,412.537a2.333,2.333,0,1,1-3.3,0,2.332,2.332,0,0,1,3.3,0" transform="translate(-18009.258 -464.972)" fill="none" stroke="#ffbc8b" stroke-linecap="round" stroke-linejoin="round" stroke-width="2"/>
    <path id="Path_870" data-name="Path 870" d="M186.049,406.534a2.333,2.333,0,1,1-3.3,0A2.334,2.334,0,0,1,186.049,406.534Z" transform="translate(-18009.258 -464.972)" fill="none" stroke="#ffbc8b" stroke-linecap="round" stroke-linejoin="round" stroke-width="2"/>
    <path id="Path_871" data-name="Path 871" d="M197.027,408.48l-3.64,3.027" transform="translate(-18009.258 -464.972)" fill="none" stroke="#ffbc8b" stroke-linecap="round" stroke-linejoin="round" stroke-width="2"/>
    <path id="Path_872" data-name="Path 872" d="M189.653,411.707l-3.32-2.227" transform="translate(-18009.258 -464.972)" fill="none" stroke="#ffbc8b" stroke-linecap="round" stroke-linejoin="round" stroke-width="2"/>
    <path id="Path_873" data-name="Path 873" d="M178.987,412.707l3.626-3.027" transform="translate(-18009.258 -464.972)" fill="none" stroke="#ffbc8b" stroke-linecap="round" stroke-linejoin="round" stroke-width="2"/>
  </g>
</svg>
