<svg xmlns="http://www.w3.org/2000/svg" width="72" height="72" viewBox="0 0 72 72">
  <g id="Feature_Icon_2" data-name="Feature Icon 2" transform="translate(17597.258 275.972)">
    <rect id="Rectangle_238" data-name="Rectangle 238" width="72" height="72" rx="36" transform="translate(-17597.258 -275.972)" fill="#fef1f2"/>
    <path id="Path_886" data-name="Path 886" d="M453.333,237,452,231.667" transform="translate(-18009.258 -464.972)" fill="none" stroke="#f5808b" stroke-linecap="round" stroke-linejoin="round" stroke-width="2"/>
    <path id="Path_887" data-name="Path 887" d="M442.667,237,444,231.667" transform="translate(-18009.258 -464.972)" fill="none" stroke="#f5808b" stroke-linecap="round" stroke-linejoin="round" stroke-width="2"/>
    <path id="Path_888" data-name="Path 888" d="M457.233,231.667H438.767A2.767,2.767,0,0,1,436,228.9V215.767A2.767,2.767,0,0,1,438.767,213h18.465A2.767,2.767,0,0,1,460,215.767V228.9A2.767,2.767,0,0,1,457.233,231.667Z" transform="translate(-18009.258 -464.972)" fill="none" stroke="#f5808b" stroke-linecap="round" stroke-linejoin="round" stroke-width="2"/>
    <path id="Path_889" data-name="Path 889" d="M442,226.333V222.7" transform="translate(-18009.258 -464.972)" fill="none" stroke="#f5808b" stroke-linecap="round" stroke-linejoin="round" stroke-width="2"/>
    <path id="Path_890" data-name="Path 890" d="M446,226.333v-8" transform="translate(-18009.258 -464.972)" fill="none" stroke="#f5808b" stroke-linecap="round" stroke-linejoin="round" stroke-width="2"/>
    <path id="Path_891" data-name="Path 891" d="M450,226.333V221.9" transform="translate(-18009.258 -464.972)" fill="none" stroke="#f5808b" stroke-linecap="round" stroke-linejoin="round" stroke-width="2"/>
    <path id="Path_892" data-name="Path 892" d="M454,226.333v-7.272" transform="translate(-18009.258 -464.972)" fill="none" stroke="#f5808b" stroke-linecap="round" stroke-linejoin="round" stroke-width="2"/>
  </g>
</svg>
