<svg xmlns="http://www.w3.org/2000/svg" xmlns:xlink="http://www.w3.org/1999/xlink" width="1440" height="760" viewBox="0 0 1440 760">
  <defs>
    <clipPath id="clip-path">
      <path id="Path_188" data-name="Path 188" d="M0,0H1440V760H0Z" transform="translate(7775.177 -2582)" fill="#fef1f2"/>
    </clipPath>
  </defs>
  <g id="Hero_Wave_Contact" data-name="Hero Wave Contact" transform="translate(-7775.177 2582)" opacity="0.45" clip-path="url(#clip-path)">
    <g id="Group_43" data-name="Group 43" transform="translate(7775.177 -2582)">
      <g id="Group_42" data-name="Group 42" opacity="0.6">
        <path id="Path_189" data-name="Path 189" d="M261.78,1541.19C124.613,1425.43,114.609,1257.7,52.732,1107.86-13.1,948.437-153.692,785.471-111.377,637.57-68.253,486.842,91.607,383.382,268.872,352.4c161.8-28.276,333.256,117.876,506.357,130.224,210.087,14.986,393.821-143.474,593.231-51.786,200.24,92.067,327.43,305.8,357.67,488.995,28.66,173.6-144.29,282.074-205.15,434.864-61.59,154.65,9.13,385.51-152.79,463.84-161.67,78.21-392.495-51.62-594.587-102.27C595.8,1671.7,401.176,1658.84,261.78,1541.19Z" fill="none" stroke="#fac0c5" stroke-width="1" fill-rule="evenodd"/>
        <path id="Path_190" data-name="Path 190" d="M326.575,1480.02C204.8,1377.24,195.917,1228.34,140.983,1095.31,82.533,953.771-42.281,809.089-4.714,677.783,33.571,543.966,175.5,452.114,332.871,424.611c143.646-25.1,295.866,104.65,449.545,115.613,186.515,13.3,349.634-127.376,526.674-45.975,177.77,81.737,290.69,271.491,317.54,434.13,25.44,154.121-128.11,250.421-182.14,386.081-54.68,137.29,8.11,342.25-135.64,411.79-143.54,69.44-348.46-45.83-527.877-90.8C623.12,1595.88,450.332,1584.47,326.575,1480.02Z" fill="none" stroke="#fac0c5" stroke-width="1" fill-rule="evenodd"/>
        <path id="Path_191" data-name="Path 191" d="M393.538,1416.8c-105.872-89.35-113.594-218.81-161.354-334.46-50.815-123.056-159.328-248.842-126.667-363C138.8,603,262.19,523.146,399.011,499.236,523.9,477.411,656.236,590.218,789.843,599.748,952,611.316,1093.81,489.009,1247.73,559.778c154.56,71.062,252.72,236.033,276.07,377.431,22.12,133.991-111.38,217.721-158.35,335.651-47.54,119.36,7.05,297.55-117.93,358.01-124.79,60.37-302.947-39.84-458.932-78.94C651.353,1517.53,501.131,1507.61,393.538,1416.8Z" fill="none" stroke="#fac0c5" stroke-width="1" fill-rule="evenodd"/>
        <path id="Path_192" data-name="Path 192" d="M455.614,1358.2c-91.128-76.91-97.774-188.34-138.883-287.89C272.992,964.4,179.591,856.127,207.7,757.868,236.353,657.73,342.558,589,460.326,568.415c107.492-18.786,221.4,78.311,336.4,86.515,139.573,9.956,261.641-95.318,394.121-34.4,133.03,61.165,217.53,203.162,237.62,324.868,19.04,115.336-95.86,187.4-136.29,288.906-40.92,102.74,6.06,256.12-101.51,308.16-107.41,51.96-260.759-34.29-395.021-67.95C677.525,1444.9,548.224,1436.36,455.614,1358.2Z" fill="none" stroke="#fac0c5" stroke-width="1" fill-rule="evenodd"/>
        <path id="Path_193" data-name="Path 193" d="M520.256,1297.17c-75.775-63.95-81.3-156.61-115.484-239.38-36.37-88.073-114.035-178.1-90.659-259.8,23.823-83.267,112.135-140.421,210.06-157.534,89.382-15.621,184.1,65.117,279.726,71.939,116.058,8.278,217.561-79.259,327.721-28.608,110.62,50.86,180.88,168.933,197.58,270.134,15.83,95.9-79.71,155.823-113.33,240.233-34.02,85.43,5.05,212.96-84.4,256.24-89.31,43.2-216.827-28.52-328.469-56.5C704.779,1369.27,597.262,1362.17,520.256,1297.17Z" fill="none" stroke="#fac0c5" stroke-width="1" fill-rule="evenodd"/>
        <path id="Path_194" data-name="Path 194" d="M569.266,1250.88c-64.13-54.13-68.808-132.55-97.737-202.6C440.748,973.743,375.018,897.551,394.8,828.4c20.162-70.47,94.9-118.841,177.779-133.325,75.647-13.22,155.809,55.111,236.739,60.884,98.223,7.007,184.124-67.079,277.36-24.211,93.62,43.044,153.08,142.972,167.22,228.621,13.4,81.169-67.46,131.879-95.92,203.319-28.79,72.3,4.27,180.23-71.43,216.85-75.59,36.57-183.505-24.13-277.99-47.81C725.432,1311.89,634.438,1305.88,569.266,1250.88Z" fill="none" stroke="#fac0c5" stroke-width="1" fill-rule="evenodd"/>
        <path id="Path_195" data-name="Path 195" d="M619.853,1203.1c-52.112-43.98-55.913-107.7-79.422-164.63C515.419,977.9,462.006,915.988,478.082,859.8c16.384-57.265,77.119-96.572,144.466-108.341,61.471-10.743,126.611,44.784,192.376,49.475,79.817,5.693,149.621-54.509,225.386-19.675,76.07,34.978,124.39,116.181,135.88,185.78,10.89,65.954-54.82,107.164-77.94,165.214-23.4,58.76,3.47,146.46-58.05,176.22-61.42,29.72-149.114-19.61-225.894-38.85C746.756,1252.68,672.813,1247.8,619.853,1203.1Z" fill="none" stroke="#fac0c5" stroke-width="1" fill-rule="evenodd"/>
        <path id="Path_196" data-name="Path 196" d="M663.135,1162.22c-41.828-35.31-44.879-86.45-63.748-132.15-20.077-48.614-62.948-98.31-50.045-143.412,13.151-45.964,61.9-77.513,115.956-86.96,49.34-8.623,101.625,35.945,154.411,39.711,64.065,4.57,120.094-43.752,180.9-15.792,61.07,28.075,99.85,93.253,109.07,149.117,8.74,52.936-44,86.016-62.56,132.616-18.78,47.15,2.79,117.55-46.59,141.44-49.3,23.85-119.689-15.74-181.317-31.19C764.994,1202.01,705.643,1198.09,663.135,1162.22Z" fill="none" stroke="#fac0c5" stroke-width="1" fill-rule="evenodd"/>
        <path id="Path_197" data-name="Path 197" d="M701.8,1125.69c-32.64-27.55-35.021-67.47-49.745-103.12-15.667-37.938-49.122-76.718-39.052-111.913,10.261-35.868,48.3-60.487,90.485-67.859,38.5-6.729,79.3,28.05,120.494,30.988,49.992,3.566,93.714-34.141,141.167-12.323,47.648,21.909,77.918,72.769,85.108,116.363,6.82,41.314-34.33,67.124-48.81,103.484-14.661,36.8,2.17,91.73-36.362,110.37-38.473,18.61-93.4-12.28-141.49-24.33C781.288,1156.74,734.974,1153.68,701.8,1125.69Z" fill="none" stroke="#fac0c5" stroke-width="1" fill-rule="evenodd"/>
      </g>
    </g>
  </g>
</svg>
