<svg xmlns="http://www.w3.org/2000/svg" width="42.105" height="38.155" viewBox="0 0 42.105 38.155">
  <g id="Icon_01" data-name="Icon 01" transform="translate(-3857.022 -563.925)">
    <path id="Path_186" data-name="Path 186" d="M1008.06,3550.28l15.32,26.81a4.674,4.674,0,0,1-4.06,6.99H988.682a4.672,4.672,0,0,1-4.058-6.99l15.318-26.81a4.675,4.675,0,0,1,8.118,0Z" transform="translate(2874.073 -2983)" fill="none" stroke="#ed9ae4" stroke-linecap="round" stroke-linejoin="round" stroke-width="2"/>
    <path id="Path_187" data-name="Path 187" d="M1002.89,3567.6a2.263,2.263,0,0,1-3.629-.58l-.816-1.64a7.584,7.584,0,0,0-2.222,5.37v.19a7.779,7.779,0,0,0,15.557,0,6.978,6.978,0,0,0-2.6-5.43l-1.2-.97a6.981,6.981,0,0,1-2.43-3.88l-.44-1.95a8.822,8.822,0,0,0-2.41,7.96Z" transform="translate(2874.073 -2983)" fill="none" stroke="#ed9ae4" stroke-linecap="round" stroke-linejoin="round" stroke-width="2"/>
  </g>
</svg>
