<svg xmlns="http://www.w3.org/2000/svg" width="38" height="40.099" viewBox="0 0 38 40.099">
  <g id="Icon_Quality" data-name="Icon Quality" transform="translate(-1582.168 1136.003)">
    <path id="Path_329" data-name="Path 329" d="M178,424h4a4,4,0,0,1,4,4v20a4,4,0,0,1-4,4H154a4,4,0,0,1-4-4V428a4,4,0,0,1,4-4h4" transform="translate(1433.168 -1548.904)" fill="none" stroke="#46d39a" stroke-linecap="round" stroke-linejoin="round" stroke-width="2"/>
    <path id="Path_330" data-name="Path 330" d="M160.168,429.534l-.288-2.17v0l-1.33-1.74a2.673,2.673,0,0,1,0-3.246l1.33-1.74v0l.29-2.172a2.673,2.673,0,0,1,2.3-2.3l2.17-.288h0l1.74-1.33a2.674,2.674,0,0,1,3.246,0l1.74,1.33h0l2.172.29a2.673,2.673,0,0,1,2.3,2.3l.288,2.17v0l1.33,1.74a2.673,2.673,0,0,1,0,3.246l-1.33,1.74v0l-.29,2.172a2.673,2.673,0,0,1-2.3,2.3l-2.17.288h0l-1.74,1.33a2.674,2.674,0,0,1-3.246,0l-1.74-1.33h0l-2.172-.29A2.671,2.671,0,0,1,160.168,429.534Z" transform="translate(1433.168 -1548.904)" fill="none" stroke="#46d39a" stroke-linecap="round" stroke-linejoin="round" stroke-width="2"/>
    <path id="Path_331" data-name="Path 331" d="M171.113,422.444l-3.89,3.89L164.891,424" transform="translate(1433.168 -1548.904)" fill="none" stroke="#46d39a" stroke-linecap="round" stroke-linejoin="round" stroke-width="2"/>
    <path id="Path_332" data-name="Path 332" d="M158,440h20" transform="translate(1433.168 -1548.904)" fill="none" stroke="#46d39a" stroke-linecap="round" stroke-linejoin="round" stroke-width="2"/>
    <path id="Path_333" data-name="Path 333" d="M162,446h12" transform="translate(1433.168 -1548.904)" fill="none" stroke="#46d39a" stroke-linecap="round" stroke-linejoin="round" stroke-width="2"/>
  </g>
</svg>
