<svg xmlns="http://www.w3.org/2000/svg" width="38.074" height="39" viewBox="0 0 38.074 39">
  <g id="Icon_02" data-name="Icon 02" transform="translate(-3515.036 -515)">
    <path id="Path_180" data-name="Path 180" d="M642.27,3524a1.977,1.977,0,0,1,0-2c3.81-6.44,10.77-12,17.73-12s13.918,5.56,17.728,12a1.977,1.977,0,0,1,0,2c-3.81,6.44-10.768,12-17.728,12s-13.92-5.56-17.73-12Z" transform="translate(2874.073 -2983)" fill="none" stroke="#ff9f59" stroke-linecap="round" stroke-linejoin="round" stroke-width="2"/>
    <path id="Path_181" data-name="Path 181" d="M664.242,3518.76a6,6,0,1,1-8.486,0A5.992,5.992,0,0,1,664.242,3518.76Z" transform="translate(2874.073 -2983)" fill="none" stroke="#ff9f59" stroke-linecap="round" stroke-linejoin="round" stroke-width="2"/>
    <path id="Path_182" data-name="Path 182" d="M660,3499v5" transform="translate(2874.073 -2983)" fill="none" stroke="#ff9f59" stroke-linecap="round" stroke-linejoin="round" stroke-width="2"/>
    <path id="Path_183" data-name="Path 183" d="M646,3503l3.36,4" transform="translate(2874.073 -2983)" fill="none" stroke="#ff9f59" stroke-linecap="round" stroke-linejoin="round" stroke-width="2"/>
    <path id="Path_184" data-name="Path 184" d="M674,3503l-3.36,4" transform="translate(2874.073 -2983)" fill="none" stroke="#ff9f59" stroke-linecap="round" stroke-linejoin="round" stroke-width="2"/>
  </g>
</svg>
