<svg xmlns="http://www.w3.org/2000/svg" xmlns:xlink="http://www.w3.org/1999/xlink" width="120" height="120" viewBox="0 0 120 120">
  <defs>
    <clipPath id="clip-path">
      <rect id="Rectangle_64" data-name="Rectangle 64" width="120" height="120" transform="translate(1036 1228)" fill="#fff"/>
    </clipPath>
  </defs>
  <g id="United_States" data-name="United States" transform="translate(-1036 -1228)" clip-path="url(#clip-path)">
    <path id="Path_297" data-name="Path 297" d="M1110.42,1277.95v56.85h-12.19v-75.12l-.2-.41c.41-.2.81-.41,1.22-.61l.2.2,4.87,4.88v4.06l10.16-10.16,8.12,8.13Z" fill="#ebfbff"/>
    <path id="Path_298" data-name="Path 298" d="M1099.45,1258.66c-.4.2-.81.41-1.22.61a6.049,6.049,0,0,1-1.82.41,5.538,5.538,0,0,1-4.27-1.83,6.371,6.371,0,0,1-1.83-4.27v-6.09h12.19v6.09A6.679,6.679,0,0,1,1099.45,1258.66Z" fill="#ebfbff"/>
    <path id="Path_299" data-name="Path 299" d="M1081.99,1237.34c-1.62,10.15-1.02,15.23,0,16.24l4.06,4.06h4.06l1.83.21a6.346,6.346,0,0,0,4.26,1.83,3,3,0,0,0,1.83-.41l.2.41v14.21l-12.18,12.18v-20.3l-6.09-6.09a21.077,21.077,0,0,1-2.03-8.13c0-4.06,2.03-14.21,2.03-14.21a13.9,13.9,0,0,0,2.03-.2Z" fill="#ebfbff"/>
    <path id="Path_300" data-name="Path 300" d="M1077.93,1334.8h36.55v12.18h-36.55V1334.8Zm2.03-97.46c0-8.12,8.12-8.12,8.12-8.12a7.722,7.722,0,0,1-6.09,7.92A13.9,13.9,0,0,1,1079.96,1237.34Z" fill="#e4faff"/>
    <path id="Path_301" data-name="Path 301" d="M1081.99,1334.8v-44.67l4.06-4.06,12.18-12.18v60.91Z" fill="#e4faff"/>
    <path id="Path_302" data-name="Path 302" d="M1155.09,1348H1037.32a1.015,1.015,0,1,1,0-2.03h39.59v-10.15h-3.04a1.015,1.015,0,1,1,0-2.03h7.1v-43.66c0-.2.21-.61.21-.81l3.86-3.86v-19.49l-5.89-5.89-.21-.2c0-.2-2.23-4.27-2.23-8.53,0-3.86,1.83-13.2,2.03-14.42,0-7.1,6.09-8.93,9.14-8.93a.958.958,0,0,1,1.01,1.02c0,6.7-5.07,8.73-8.32,9.13-.41,2.44-1.83,9.95-1.83,13.2a18.562,18.562,0,0,0,1.83,7.51l5.89,5.89c.2.2.2.41.2.81v17.87l10.15-10.15v-7.51a1.015,1.015,0,1,1,2.03,0v34.11l4.27-4.27a.99.99,0,0,1,1.42,0c.2.21.2.41.2.82s0,.61-.2.81l-5.89,5.89v25.99a1.015,1.015,0,0,1-2.03,0v-19.9l-6.09,6.09v13.81a1.015,1.015,0,0,1-2.03,0v-11.78l-.21.2a.974.974,0,0,1-1.42,0c-.2-.2-.2-.4-.2-.81s0-.61.2-.81l2.03-2.03,7.92-7.92v-29.64l-10.35,10.35-3.86,3.86v43.25h35.53a1.015,1.015,0,1,1,0,2.03h-3.04v10.15h39.59a.966.966,0,0,1,1.02,1.02C1155.7,1347.59,1155.7,1348,1155.09,1348Zm-57.87-2.03h16.24v-10.15h-34.52v10.15h16.25v-3.05a1.015,1.015,0,0,1,2.03,0v3.05Zm-10.15-115.53a6.349,6.349,0,0,0-5.89,5.88C1082.8,1235.92,1086.46,1234.7,1087.07,1230.44Zm23.35,99.29a.966.966,0,0,1-1.02-1.02v-50.76c0-.2.2-.61.2-.81l11.37-11.37-6.7-6.7-8.73,8.73,1.22,1.22a.973.973,0,0,1,0,1.42.99.99,0,0,1-1.42,0l-2.03-2.03a.985.985,0,0,1,0-1.43l10.15-10.15a.99.99,0,0,1,1.42,0l8.13,8.12a1,1,0,0,1,0,1.43l-11.98,11.98v50.35C1111.43,1329.32,1111.03,1329.73,1110.42,1329.73Zm-14.22-69.04a7.205,7.205,0,0,1-7.1-6.09h-3.05a1.015,1.015,0,0,1,0-2.03h3.05v-4.67l-3.66-3.66c-.2-.2-.2-.4-.2-.81s0-.61.2-.81a.973.973,0,0,1,1.42,0l3.66,3.65h4.67v-4.87a1.015,1.015,0,0,1,2.03,0v5.08h4.67l3.65-3.66a.99.99,0,0,1,1.42,0c.21.21.21.41.21.81s0,.61-.21.82l-3.65,3.65v4.67h3.05a1.015,1.015,0,0,1,0,2.03h-3.05A7.219,7.219,0,0,1,1096.2,1260.69Zm-5.07-7.11a5.075,5.075,0,1,0,10.15,0v-5.07h-10.15Z" fill="#01d2fc"/>
  </g>
</svg>
