<svg xmlns="http://www.w3.org/2000/svg" width="36" height="26" viewBox="0 0 36 26">
  <g id="Value_Icon_01" data-name="Value Icon 01" transform="translate(1908.832 -3129.096)">
    <path id="Path_446" data-name="Path 446" d="M161.828,197.172a4,4,0,1,1-5.656,0,4,4,0,0,1,5.656,0" transform="translate(-2058.832 2936.096)" fill="none" stroke="#6a35ff" stroke-linecap="round" stroke-linejoin="round" stroke-width="2"/>
    <path id="Path_447" data-name="Path 447" d="M179.536,195.464a5,5,0,1,1-7.072,0,5,5,0,0,1,7.072,0" transform="translate(-2058.832 2936.096)" fill="none" stroke="#6a35ff" stroke-linecap="round" stroke-linejoin="round" stroke-width="2"/>
    <path id="Path_448" data-name="Path 448" d="M185,218v-2a6,6,0,0,0-6-6h-6a6,6,0,0,0-6,6v2" transform="translate(-2058.832 2936.096)" fill="none" stroke="#6a35ff" stroke-linecap="round" stroke-linejoin="round" stroke-width="2"/>
    <path id="Path_449" data-name="Path 449" d="M161,210h-4a6,6,0,0,0-6,6v2" transform="translate(-2058.832 2936.096)" fill="none" stroke="#6a35ff" stroke-linecap="round" stroke-linejoin="round" stroke-width="2"/>
  </g>
</svg>
