<svg xmlns="http://www.w3.org/2000/svg" width="38" height="38" viewBox="0 0 38 38">
  <g id="Value_Icon_06" data-name="Value Icon 06" transform="translate(1453.832 -3351.096)">
    <path id="Path_471" data-name="Path 471" d="M614,430a3.888,3.888,0,0,1,3-1.52,3.934,3.934,0,0,1,3,1.52" transform="translate(-2058.832 2936.096)" fill="none" stroke="#01d2fc" stroke-linecap="round" stroke-linejoin="round" stroke-width="2"/>
    <path id="Path_472" data-name="Path 472" d="M628,430a3.888,3.888,0,0,1,3-1.52,3.934,3.934,0,0,1,3,1.52" transform="translate(-2058.832 2936.096)" fill="none" stroke="#01d2fc" stroke-linecap="round" stroke-linejoin="round" stroke-width="2"/>
    <path id="Path_473" data-name="Path 473" d="M636.728,421.272a18,18,0,1,1-25.456,0,18,18,0,0,1,25.456,0" transform="translate(-2058.832 2936.096)" fill="none" stroke="#01d2fc" stroke-linecap="round" stroke-linejoin="round" stroke-width="2"/>
    <path id="Path_474" data-name="Path 474" d="M631,439.376a10.649,10.649,0,0,1-14,0" transform="translate(-2058.832 2936.096)" fill="none" stroke="#01d2fc" stroke-linecap="round" stroke-linejoin="round" stroke-width="2"/>
  </g>
</svg>
