<svg xmlns="http://www.w3.org/2000/svg" width="38.841" height="38" viewBox="0 0 38.841 38">
  <g id="Value_Icon_05" data-name="Value Icon 05" transform="translate(1681.832 -3351.095)">
    <path id="Path_463" data-name="Path 463" d="M383.968,452H380a2,2,0,0,1-2-2V438a2,2,0,0,1,2-2h3.968a2,2,0,0,1,2,2v12A2,2,0,0,1,383.968,452Z" transform="translate(-2058.832 2936.096)" fill="none" stroke="#f14a59" stroke-linecap="round" stroke-linejoin="round" stroke-width="2"/>
    <path id="Path_464" data-name="Path 464" d="M397.921,444h4.648a3.969,3.969,0,0,0,2.39-.8l4.812-3.624a3.024,3.024,0,0,1,3.944,4.566l-4.128,4.146a7.961,7.961,0,0,1-4.072,2.188l-5.838,1.172a7.935,7.935,0,0,1-3.5-.084L390.9,450.24a7.854,7.854,0,0,0-1.932-.24h-3" transform="translate(-2058.832 2936.096)" fill="none" stroke="#f14a59" stroke-linecap="round" stroke-linejoin="round" stroke-width="2"/>
    <path id="Path_465" data-name="Path 465" d="M397.921,444h2.958a3.024,3.024,0,0,0,3.018-3.03v-.606a3.025,3.025,0,0,0-2.286-2.938l-4.566-1.146a9.32,9.32,0,0,0-7.456,1.3L385.969,440" transform="translate(-2058.832 2936.096)" fill="none" stroke="#f14a59" stroke-linecap="round" stroke-linejoin="round" stroke-width="2"/>
    <path id="Path_466" data-name="Path 466" d="M402.573,417.322l-.7.746-.7-.746a4.172,4.172,0,0,0-5.774-.306,4.261,4.261,0,0,0-.514,5.886,41.037,41.037,0,0,0,6.988,7.1,41.4,41.4,0,0,0,7.14-7.29,4.1,4.1,0,0,0-.574-5.614l-.076-.066a4.179,4.179,0,0,0-5.792.292Z" transform="translate(-2058.832 2936.096)" fill="none" stroke="#f14a59" stroke-linecap="round" stroke-linejoin="round" stroke-width="2"/>
  </g>
</svg>
