<svg xmlns="http://www.w3.org/2000/svg" width="1218.072" height="1234.004" viewBox="0 0 1218.072 1234.004">
  <g id="Wave_Blue" data-name="Wave Blue" transform="translate(-89.362 -3971.408)">
    <g id="Group_170" data-name="Group 170" opacity="0.2">
      <path id="Path_723" data-name="Path 723" d="M785.65,4546.42c14.753,9.41,17.3,29.16,23.433,45.56,5.708,15.25,11.487,30.1,10.973,46.39-.606,19.17,1.188,42.82-14.155,54.33-15.454,11.6-37.206-2.12-56.5-1.3-17.461.73-36.359,15.64-50.816,5.83-14.61-9.92-7.571-33.31-13.942-49.79-5.875-15.19-23.3-26.21-21.72-42.43,1.6-16.46,17.013-27.56,29.57-38.33,12.256-10.51,25.718-19.17,41.489-22.6C751.254,4540.32,770.751,4536.92,785.65,4546.42Z" fill="none" stroke="#4ddffd" stroke-width="1" fill-rule="evenodd"/>
      <path id="Path_724" data-name="Path 724" d="M808.664,4498.43c23.835,15.19,27.992,47.01,37.935,73.44,9.252,24.59,18.616,48.53,17.827,74.77-.928,30.88,2.027,68.98-22.706,87.49-24.913,18.65-60.054-3.51-91.193-2.25-28.179,1.15-58.642,25.11-82,9.27-23.605-16.01-12.3-53.68-22.627-80.24-9.521-24.49-37.665-42.28-35.162-68.41,2.541-26.52,27.387-44.37,47.625-61.68,19.755-16.9,41.46-30.82,66.9-36.3C753.137,4488.51,784.595,4483.08,808.664,4498.43Z" fill="none" stroke="#4ddffd" stroke-width="1" fill-rule="evenodd"/>
      <path id="Path_725" data-name="Path 725" d="M830.959,4451.93c32.633,20.8,38.351,64.31,51.983,100.46,12.685,33.63,25.523,66.38,24.468,102.25-1.241,42.24,2.839,94.33-30.991,119.62-34.075,25.48-82.187-4.85-124.8-3.15-38.561,1.53-80.227,34.27-112.206,12.59-32.319-21.92-16.888-73.42-31.042-109.74-13.052-33.5-51.584-57.86-48.183-93.58,3.451-36.26,37.437-60.64,65.117-84.3,27.018-23.09,56.708-42.1,91.523-49.57C754.961,4438.32,798.007,4430.93,830.959,4451.93Z" fill="none" stroke="#4ddffd" stroke-width="1" fill-rule="evenodd"/>
      <path id="Path_726" data-name="Path 726" d="M851.1,4409.93c40.578,25.86,47.707,79.94,64.671,124.86,15.785,41.81,31.761,82.51,30.466,127.09-1.524,52.48,3.572,117.22-38.474,148.63-42.351,31.64-102.178-6.07-155.154-3.98-47.94,1.89-99.725,42.56-139.492,15.6-40.189-27.25-21.028-91.24-38.641-136.39-16.242-41.63-64.156-71.92-59.945-116.31,4.274-45.05,46.514-75.34,80.916-104.73,33.578-28.68,70.481-52.29,113.76-61.56C756.609,4392.98,810.121,4383.81,851.1,4409.93Z" fill="none" stroke="#4ddffd" stroke-width="1" fill-rule="evenodd"/>
      <path id="Path_727" data-name="Path 727" d="M869.8,4370.93c47.958,30.57,56.4,94.45,76.455,147.53,18.664,49.38,37.553,97.47,36.035,150.13-1.787,62,4.253,138.48-45.423,175.58-50.036,37.37-120.741-7.2-183.341-4.74-56.648,2.22-117.828,50.25-164.827,18.38-47.5-32.2-24.873-107.79-45.7-161.12-19.2-49.19-75.831-84.99-70.867-137.42,5.039-53.23,54.944-89,95.587-123.7,39.671-33.88,83.27-61.76,134.409-72.7C758.139,4350.89,821.37,4340.07,869.8,4370.93Z" fill="none" stroke="#4ddffd" stroke-width="1" fill-rule="evenodd"/>
      <path id="Path_728" data-name="Path 728" d="M889.216,4330.44c55.62,35.44,65.419,109.51,88.69,171.05,21.654,57.26,43.564,113.02,41.814,174.08-2.05,71.88,4.97,160.56-52.633,203.56-58.017,43.31-140.019-8.37-212.612-5.54-65.691,2.56-136.629,58.24-191.137,21.28-55.086-37.34-28.866-124.97-53.026-186.82-22.28-57.03-87.955-98.55-82.209-159.34,5.832-61.71,63.7-103.17,110.821-143.4,46-39.26,96.551-71.58,155.852-84.26C759.728,4307.17,833.051,4294.64,889.216,4330.44Z" fill="none" stroke="#4ddffd" stroke-width="1" fill-rule="evenodd"/>
      <path id="Path_729" data-name="Path 729" d="M912.95,4280.94c64.985,41.41,76.447,127.93,103.64,199.82,25.31,66.89,50.92,132.02,48.89,203.33-2.39,83.96,5.83,187.54-61.46,237.76-67.765,50.58-163.575-9.8-248.382-6.51-76.744,2.98-159.608,68-223.294,24.83-64.362-43.64-33.746-145.99-61.983-218.23-26.04-66.62-102.772-115.12-96.071-186.14,6.8-72.07,74.4-120.49,129.442-167.47,53.729-45.85,112.783-83.59,182.06-98.39C761.67,4253.74,847.328,4239.12,912.95,4280.94Z" fill="none" stroke="#4ddffd" stroke-width="1" fill-rule="evenodd"/>
      <path id="Path_730" data-name="Path 730" d="M938.842,4226.94c75.2,47.92,88.478,148.02,119.958,231.19,29.29,77.4,58.94,152.76,56.6,235.26-2.76,97.14,6.77,216.98-71.08,275.06-78.409,58.51-189.282-11.36-287.413-7.56-88.8,3.43-184.675,78.65-258.374,28.69-74.481-50.49-39.07-168.9-71.754-252.49-30.141-77.08-118.937-133.21-111.193-215.36,7.86-83.39,86.067-139.39,149.754-193.74,62.165-53.05,130.492-96.7,210.651-113.8C763.789,4195.45,862.9,4178.55,938.842,4226.94Z" fill="none" stroke="#4ddffd" stroke-width="1" fill-rule="evenodd"/>
      <path id="Path_731" data-name="Path 731" d="M964.014,4174.44c85.136,54.25,100.176,167.56,135.816,261.7,33.17,87.6,66.74,172.91,64.1,266.3-3.11,109.94,7.68,245.59-80.43,311.33-88.758,66.21-214.275-12.89-325.359-8.6-100.525,3.88-209.047,89-292.48,32.45-84.319-57.16-44.246-191.19-81.254-285.8-34.129-87.25-134.653-150.79-125.9-243.78,8.888-94.38,97.413-157.76,169.5-219.27,70.366-60.04,147.708-109.44,238.448-128.79C765.848,4138.78,878.045,4119.66,964.014,4174.44Z" fill="none" stroke="#4ddffd" stroke-width="1" fill-rule="evenodd"/>
      <path id="Path_732" data-name="Path 732" d="M987.029,4126.45c94.221,60.03,110.871,185.41,150.321,289.58,36.71,96.94,73.87,191.33,70.95,294.67-3.43,121.66,8.52,271.76-88.98,344.49-98.22,73.27-237.122-14.27-360.051-9.53-111.242,4.28-231.328,98.47-323.662,35.88-93.314-63.26-48.978-211.56-89.94-316.25-37.773-96.55-149.02-166.86-139.337-269.76,9.83-104.44,107.789-174.56,187.559-242.62,77.864-66.42,163.449-121.08,263.862-142.49C767.732,4086.97,891.89,4065.82,987.029,4126.45Z" fill="none" stroke="#4ddffd" stroke-width="1" fill-rule="evenodd"/>
      <path id="Path_733" data-name="Path 733" d="M1011.48,4075.45c103.87,66.18,122.23,204.38,165.73,319.22,40.48,106.86,81.44,210.91,78.23,324.82-3.77,134.1,9.42,299.55-98.07,379.72-108.26,80.75-261.39-15.75-396.9-10.54-122.63,4.72-255,108.53-356.793,39.53-102.871-69.73-54.006-233.19-99.168-348.6-41.647-106.42-164.287-183.94-153.619-297.36,10.828-115.13,118.811-192.42,206.743-267.43,85.83-73.22,180.173-133.46,290.864-157.05C769.732,4031.92,906.6,4008.61,1011.48,4075.45Z" fill="none" stroke="#4ddffd" stroke-width="1" fill-rule="evenodd"/>
      <path id="Path_734" data-name="Path 734" d="M1038.09,4019.95c114.37,72.88,134.6,225.03,182.5,351.47,44.57,117.65,89.68,232.21,86.16,357.62-4.15,147.65,10.38,329.81-107.96,418.07-119.2,88.9-287.811-17.35-437.018-11.62-135.023,5.18-280.768,119.47-392.849,43.5-113.27-76.78-59.477-256.75-109.21-383.82-45.862-117.17-180.9-202.53-169.161-327.4,11.916-126.75,130.806-211.84,227.62-294.42,94.5-80.61,198.373-146.93,320.249-172.9C771.909,3972.01,922.607,3946.36,1038.09,4019.95Z" fill="none" stroke="#4ddffd" stroke-width="1" fill-rule="evenodd"/>
    </g>
  </g>
</svg>
