<svg xmlns="http://www.w3.org/2000/svg" xmlns:xlink="http://www.w3.org/1999/xlink" width="1440" height="720" viewBox="0 0 1440 720">
  <defs>
    <clipPath id="clip-path">
      <path id="Path_10" data-name="Path 10" d="M0,0H1440V720H0Z" transform="translate(4643.073 -3329)" fill="#ebfbff"/>
    </clipPath>
  </defs>
  <g id="Hero_Wave_Company" data-name="Hero Wave Company" transform="translate(-4643.073 3329)" clip-path="url(#clip-path)">
    <g id="Group_4" data-name="Group 4" transform="translate(4643.073 -3329)">
      <g id="Group_3" data-name="Group 3" opacity="0.3">
        <path id="Path_11" data-name="Path 11" d="M40.121,1482c-130.6-123.13-131.364-291.15-184.909-444.17-56.972-162.8-188.388-333.251-138.007-478.6C-231.45,411.1-66.143,316.584,112.556,295.4,275.664,276.058,438.828,431.415,610.988,453.26c208.945,26.513,401.112-121.606,595.182-19.094,194.88,102.935,310.12,323.339,330.24,507.918C1555.49,1117,1376.83,1215.8,1307.67,1365.02c-70,151.02-12.08,385.42-178.06,454.73-165.726,69.21-389.062-73.11-588.064-134.81C366.464,1630.67,172.839,1607.13,40.121,1482Z" fill="none" stroke="#4ddffd" stroke-width="1" fill-rule="evenodd"/>
        <path id="Path_12" data-name="Path 12" d="M108.182,1424.48C-7.76,1315.17-8.443,1165.99-55.98,1030.15-106.561,885.611-223.232,734.286-178.5,605.244c45.584-131.51,192.343-215.42,350.992-234.23C317.3,353.845,462.155,491.771,615,511.165,800.5,534.7,971.106,403.2,1143.4,494.213c173.01,91.386,275.33,287.061,293.19,450.931,16.94,155.286-141.67,243.006-203.08,375.476-62.14,134.08-10.72,342.18-158.08,403.72-147.13,61.44-345.408-64.91-522.082-119.68C397.909,1556.47,226.009,1535.58,108.182,1424.48Z" fill="none" stroke="#4ddffd" stroke-width="1" fill-rule="evenodd"/>
        <path id="Path_13" data-name="Path 13" d="M178.518,1365.04C77.718,1270,77.125,1140.31,35.8,1022.21-8.178,896.549-109.612,764.988-70.725,652.8-31.094,538.466,96.5,465.514,234.427,449.161,360.322,434.235,486.26,554.147,619.142,571.008c161.274,20.464,309.6-93.862,459.388-14.738,150.42,79.451,239.37,249.57,254.9,392.037,14.72,135-123.17,211.263-176.55,326.443-54.03,116.57-9.33,297.49-137.44,350.98-127.916,53.42-300.3-56.43-453.9-104.05C430.406,1479.79,280.957,1461.63,178.518,1365.04Z" fill="none" stroke="#4ddffd" stroke-width="1" fill-rule="evenodd"/>
        <path id="Path_14" data-name="Path 14" d="M243.723,1309.94c-86.762-81.81-87.273-193.43-122.847-295.09C83.026,906.69-4.281,793.451,29.19,696.885c34.111-98.411,143.935-161.2,262.655-175.279,108.363-12.847,216.763,90.365,331.139,104.878C761.8,644.1,889.466,545.694,1018.4,613.8c129.47,68.386,206.03,214.814,219.4,337.44,12.67,116.211-106.02,181.841-151.97,280.981-46.5,100.33-8.02,256.06-118.293,302.11-110.1,45.97-258.479-48.58-390.688-89.56C460.532,1408.71,331.895,1393.07,243.723,1309.94Z" fill="none" stroke="#4ddffd" stroke-width="1" fill-rule="evenodd"/>
        <path id="Path_15" data-name="Path 15" d="M311.621,1252.56c-72.144-68.02-72.569-160.84-102.149-245.37C178,917.249,105.4,823.088,133.233,742.792c28.365-81.831,119.685-134.043,218.4-145.748,90.106-10.683,180.242,75.141,275.348,87.209,115.428,14.646,221.585-67.179,328.8-10.549C1063.43,730.569,1127.1,852.326,1138.22,954.293c10.53,96.627-88.16,151.207-126.37,233.637-38.67,83.43-6.67,212.92-98.363,251.21-91.553,38.23-214.93-40.39-324.865-74.47C491.9,1334.69,384.939,1321.68,311.621,1252.56Z" fill="none" stroke="#4ddffd" stroke-width="1" fill-rule="evenodd"/>
        <path id="Path_16" data-name="Path 16" d="M363.1,1209.03c-61.057-57.57-61.416-136.13-86.451-207.67-26.636-76.115-88.078-155.8-64.523-223.761,24.006-69.256,101.292-113.445,184.84-123.35,76.259-9.042,152.543,63.593,233.034,73.806,97.689,12.4,187.533-56.855,278.268-8.927,91.111,48.126,144.99,151.172,154.4,237.469,8.92,81.773-74.61,127.973-106.946,197.733-32.728,70.61-5.647,180.2-83.248,212.6-77.484,32.36-181.9-34.18-274.941-63.02C515.678,1278.53,425.153,1267.53,363.1,1209.03Z" fill="none" stroke="#4ddffd" stroke-width="1" fill-rule="evenodd"/>
        <path id="Path_17" data-name="Path 17" d="M416.24,1164.11c-49.616-46.78-49.908-110.62-70.251-168.753-21.645-61.853-71.573-126.61-52.432-181.832,19.507-56.278,82.311-92.187,150.2-100.236,61.968-7.347,123.958,51.676,189.365,59.976,79.383,10.073,152.392-46.2,226.124-7.254,74.037,39.107,117.82,122.843,125.467,192.969,7.245,66.45-60.629,103.99-86.906,160.68-26.595,57.38-4.588,146.43-67.648,172.77-62.964,26.29-147.814-27.78-223.419-51.22C540.225,1220.59,466.663,1211.65,416.24,1164.11Z" fill="none" stroke="#4ddffd" stroke-width="1" fill-rule="evenodd"/>
        <path id="Path_18" data-name="Path 18" d="M461.7,1125.66c-39.825-37.55-40.059-88.79-56.387-135.449-17.374-49.647-57.449-101.624-42.085-145.948,15.657-45.172,66.067-73.994,120.56-80.455,49.74-5.9,99.5,41.478,151.995,48.14,63.718,8.085,122.318-37.083,181.5-5.823,59.426,31.39,94.568,98.6,100.706,154.888,5.816,53.337-48.664,83.467-69.755,128.967-21.347,46.06-3.683,117.54-54.3,138.67-50.538,21.11-118.644-22.29-179.329-41.1C561.221,1170.99,502.176,1163.82,461.7,1125.66Z" fill="none" stroke="#4ddffd" stroke-width="1" fill-rule="evenodd"/>
        <path id="Path_19" data-name="Path 19" d="M502.322,1091.31c-31.077-29.3-31.259-69.28-44-105.7-13.558-38.742-44.83-79.3-32.841-113.89,12.218-35.25,51.555-57.741,94.079-62.782,38.814-4.6,77.641,32.367,118.608,37.565,49.721,6.309,95.45-28.938,141.632-4.543,46.372,24.494,73.8,76.942,78.585,120.865,4.538,41.62-37.974,65.13-54.433,100.64-16.657,35.94-2.874,91.72-42.371,108.21-39.437,16.47-92.583-17.4-139.938-32.08C579.979,1126.69,533.9,1121.09,502.322,1091.31Z" fill="none" stroke="#4ddffd" stroke-width="1" fill-rule="evenodd"/>
      </g>
    </g>
  </g>
</svg>
