<svg xmlns="http://www.w3.org/2000/svg" xmlns:xlink="http://www.w3.org/1999/xlink" width="1440" height="900" viewBox="0 0 1440 900">
  <defs>
    <clipPath id="clip-path">
      <path id="Path_194" data-name="Path 194" d="M0,0H1440V900H0Z" transform="translate(-7169.257 2502)" fill="#fff7f2"/>
    </clipPath>
  </defs>
  <g id="Hero_Pattern" data-name="Hero Pattern" transform="translate(7169.257 -2502)" clip-path="url(#clip-path)">
    <g id="Group_32" data-name="Group 32" transform="translate(-7169.257 2502)">
      <path id="Path_195" data-name="Path 195" d="M1107.41,1893.8c-208.063,18.13-416.4-97.92-628.627-161.68-225.813-67.83-492.8-81.9-651.276-222.8C-334,1365.73-380.592,1168.93-330.7,1012.42-285.165,869.572-23.34,847.972,77.035,726.532,198.859,579.145,97.348,323.819,306.92,241c210.437-83.159,532.375-21.569,769.45,90.62,224.66,106.315,270.87,316.673,426.13,475.163,157.15,160.406,471.99,277.2,487.1,457.026,15.08,179.55-256.24,257.95-417.38,373.02C1430.46,1738.07,1318.85,1875.37,1107.41,1893.8Z" fill="none" stroke="#ffddc5" stroke-width="1" fill-rule="evenodd" opacity="0.6"/>
      <path id="Path_196" data-name="Path 196" d="M1065.19,1799.86c-184.714,16.09-369.671-86.94-558.09-143.54-200.478-60.22-437.508-72.71-578.2-197.81-143.386-127.48-184.751-302.19-140.459-441.14,40.428-126.823,272.877-146,361.99-253.813C258.582,632.706,168.461,406.027,354.519,332.5c186.826-73.829,472.643-19.149,683.121,80.453C1237.09,507.34,1278.11,694.1,1415.96,834.8c139.51,142.408,419.03,246.1,432.44,405.746,13.39,159.41-227.48,229.01-370.54,331.17C1352,1661.6,1252.91,1783.5,1065.19,1799.86Z" fill="none" stroke="#ffddc5" stroke-width="1" fill-rule="evenodd" opacity="0.6"/>
      <path id="Path_197" data-name="Path 197" d="M1021.57,1702.77c-160.594,14-321.4-75.58-485.206-124.79C362.07,1525.63,156,1514.77,33.677,1406.01c-124.659-110.83-160.622-262.73-122.114-383.53C-53.29,912.224,148.8,895.552,226.275,801.819c94.03-113.761,15.678-310.834,177.436-374.757,162.426-64.187,410.914-16.649,593.9,69.945,173.4,82.059,209.07,244.424,328.91,366.754,121.3,123.809,364.31,213.949,375.97,352.749,11.64,138.59-197.78,199.11-322.15,287.92C1270.91,1582.58,1184.77,1688.55,1021.57,1702.77Z" fill="none" stroke="#ffddc5" stroke-width="1" fill-rule="evenodd" opacity="0.6"/>
      <path id="Path_198" data-name="Path 198" d="M981.126,1612.77c-138.226,12.05-276.634-65.05-417.632-107.41-150.021-45.06-327.4-54.41-432.682-148.02C23.514,1261.94-7.44,1131.2,25.7,1027.22c30.253-94.9,204.2-109.251,270.885-189.93,80.935-97.919,13.5-267.547,152.726-322.568,139.806-55.248,353.689-14.33,511.19,60.2,149.255,70.632,179.955,210.385,283.1,315.679,104.4,106.568,313.57,184.155,323.61,303.625,10.02,119.29-170.23,171.38-277.29,247.83C1195.75,1509.32,1121.6,1600.53,981.126,1612.77Z" fill="none" stroke="#ffddc5" stroke-width="1" fill-rule="evenodd" opacity="0.6"/>
      <path id="Path_199" data-name="Path 199" d="M939.013,1519.06c-114.938,10.01-230.026-54.1-347.269-89.32C467,1392.27,319.509,1384.5,231.961,1306.66c-89.221-79.33-114.96-188.04-87.4-274.5,25.156-78.915,169.795-90.848,225.245-157.934,67.3-81.421,11.222-222.471,126.995-268.221,116.251-45.94,294.1-11.916,425.065,50.061C1045.97,714.8,1071.5,831.005,1157.28,918.559c86.81,88.611,260.74,153.131,269.08,252.471,8.33,99.19-141.55,142.5-230.57,206.07C1117.47,1433.03,1055.82,1508.88,939.013,1519.06Z" fill="none" stroke="#ffddc5" stroke-width="1" fill-rule="evenodd" opacity="0.6"/>
      <path id="Path_200" data-name="Path 200" d="M907.051,1447.98c-97.275,8.48-194.677-45.78-293.9-75.59-105.575-31.71-230.4-38.29-304.494-104.17-75.51-67.13-97.293-159.14-73.968-232.31,21.29-66.79,143.7-76.889,190.631-133.666,56.957-68.908,9.5-188.282,107.479-227,98.386-38.88,248.9-10.084,359.743,42.368,105.035,49.706,126.64,148.055,199.23,222.154,73.47,75,220.67,129.6,227.74,213.676,7.05,83.95-119.8,120.6-195.14,174.4C1058.09,1375.17,1005.91,1439.36,907.051,1447.98Z" fill="none" stroke="#ffddc5" stroke-width="1" fill-rule="evenodd" opacity="0.6"/>
      <path id="Path_201" data-name="Path 201" d="M874.077,1374.63c-79.046,6.89-158.2-37.21-238.828-61.43-85.791-25.77-187.225-31.11-247.434-84.64-61.36-54.56-79.062-129.33-60.108-188.79,17.3-54.269,116.774-62.475,154.909-108.613,46.284-56,7.717-153,87.338-184.464,79.95-31.594,202.262-8.2,292.331,34.429,85.353,40.391,102.909,120.311,161.9,180.525,59.71,60.943,179.32,105.313,185.06,173.633,5.73,68.22-97.35,98-158.57,141.72C996.811,1315.46,954.408,1367.63,874.077,1374.63Z" fill="none" stroke="#ffddc5" stroke-width="1" fill-rule="evenodd" opacity="0.6"/>
      <path id="Path_202" data-name="Path 202" d="M845.846,1311.86c-63.447,5.53-126.977-29.86-191.7-49.31-68.861-20.68-150.277-24.97-198.6-67.94-49.251-43.79-63.459-103.8-48.246-151.53,13.887-43.557,93.729-50.144,124.338-87.177,37.15-44.945,6.2-122.806,70.1-148.061,64.172-25.359,162.345-6.577,234.64,27.634,68.509,32.421,82.6,96.569,129.949,144.9,47.92,48.914,143.93,84.524,148.54,139.364,4.6,54.76-78.14,78.66-127.279,113.76C944.359,1264.37,910.324,1306.24,845.846,1311.86Z" fill="none" stroke="#ffddc5" stroke-width="1" fill-rule="evenodd" opacity="0.6"/>
      <path id="Path_203" data-name="Path 203" d="M820.625,1255.78c-49.51,4.31-99.086-23.31-149.589-38.48-53.735-16.14-117.267-19.49-154.979-53.02-38.433-34.17-49.52-80.99-37.648-118.24,10.836-33.99,73.141-39.13,97.026-68.029,28.99-35.073,4.834-95.831,54.7-115.539,50.076-19.788,126.685-5.132,183.1,21.565,53.46,25.3,64.457,75.356,101.4,113.071,37.4,38.172,112.317,65.962,115.907,108.752,3.59,42.73-60.971,61.39-99.316,88.77C897.5,1218.72,870.94,1251.39,820.625,1255.78Z" fill="none" stroke="#ffddc5" stroke-width="1" fill-rule="evenodd" opacity="0.6"/>
    </g>
  </g>
</svg>
