<svg xmlns="http://www.w3.org/2000/svg" xmlns:xlink="http://www.w3.org/1999/xlink" width="600" height="670" viewBox="0 0 600 670">
  <defs>
    <clipPath id="clip-path">
      <path id="Path_401" data-name="Path 401" d="M245,32A32,32,0,0,1,277,0H813a32,32,0,0,1,32,32V638a32,32,0,0,1-32,32H277a32,32,0,0,1-32-32Z" transform="translate(-7931.752 550.542)" fill="#f8faff"/>
    </clipPath>
  </defs>
  <g id="Integration_Card" data-name="Integration Card" transform="translate(6836.751 -186.543)">
    <path id="Integration_Card-2" data-name="Integration Card" d="M245,32A32,32,0,0,1,277,0H813a32,32,0,0,1,32,32V638a32,32,0,0,1-32,32H277a32,32,0,0,1-32-32Z" transform="translate(-7081.752 186.542)" fill="#f8faff"/>
    <g id="Mask_Group_1" data-name="Mask Group 1" transform="translate(850 -364)" clip-path="url(#clip-path)">
      <g id="Group_39" data-name="Group 39" transform="translate(-7931.752 550.542)">
        <path id="Path_402" data-name="Path 402" d="M1389.52-46.877c146.86,38.5,146.64,145.3,206.19,226.4,63.35,86.289,210.84,154.684,152.93,262.68-59.02,110.06-246.54,220.813-448.73,288.95C1115.36,793.347,931.884,744.273,737.369,783,501.292,830,283.052,983.11,64.285,977.15-155.386,971.165-284.254,866-305.81,754.576-326.238,648.985-123.6,531.422-44.425,415.218,35.7,297.61-28.264,166.006,159.855,71.1,347.691-23.658,599.286-1.286,823.891-22.836,1021.5-41.8,1240.27-86.008,1389.52-46.877Z" fill="none" stroke="#e6eaf5" stroke-width="1" fill-rule="evenodd"/>
        <path id="Path_403" data-name="Path 403" d="M1312.19,10.573c130.39,34.185,130.19,129,183.05,201,56.25,76.607,187.19,137.329,135.78,233.208-52.4,97.711-218.88,196.038-398.38,256.53-163.85,55.214-326.737,11.646-499.428,46.026C523.623,789.064,329.869,925,135.647,919.705c-195.024-5.313-309.433-98.677-328.571-197.6C-211.059,628.36-31.155,523.988,39.134,420.822c71.139-104.413,14.348-221.251,181.36-305.506,166.761-84.129,390.128-64.267,589.533-83.4C985.464,15.085,1179.69-24.168,1312.19,10.573Z" fill="none" stroke="#e6eaf5" stroke-width="1" fill-rule="evenodd"/>
        <path id="Path_404" data-name="Path 404" d="M1232.28,69.944c113.35,29.72,113.18,112.152,159.14,174.749,48.91,66.6,162.74,119.393,118.04,202.749-45.55,84.95-190.29,170.435-346.35,223.026-142.44,48-284.059,10.126-434.2,40.016C546.7,746.76,378.25,864.94,209.4,860.34,39.842,855.72-59.625,774.55-76.263,688.546-92.03,607.045,64.378,516.3,125.487,426.613c61.848-90.776,12.475-192.355,157.674-265.606C428.142,87.866,622.336,105.134,795.7,88.5,948.221,73.867,1117.08,39.741,1232.28,69.944Z" fill="none" stroke="#e6eaf5" stroke-width="1" fill-rule="evenodd"/>
        <path id="Path_405" data-name="Path 405" d="M1158.2,124.983c97.56,25.581,97.42,96.534,136.98,150.413,42.09,57.327,140.07,102.766,101.6,174.514-39.21,73.119-163.79,146.7-298.12,191.967-122.606,41.318-244.5,8.715-373.727,34.442C568.092,707.544,423.1,809.266,277.762,805.306,131.822,801.33,46.207,731.463,31.886,657.437,18.315,587.286,152.941,509.182,205.54,431.981c53.235-78.134,10.737-165.566,135.715-228.616,124.791-62.956,291.941-48.093,441.16-62.409C913.7,128.36,1059.04,98.986,1158.2,124.983Z" fill="none" stroke="#e6eaf5" stroke-width="1" fill-rule="evenodd"/>
        <path id="Path_406" data-name="Path 406" d="M1081.05,182.3c81.13,21.271,81.01,80.269,113.9,125.07,35.01,47.669,116.48,85.452,84.49,145.112-32.61,60.8-136.2,121.984-247.89,159.624C929.6,646.46,828.24,619.35,720.785,640.743,590.369,666.707,469.807,751.291,348.954,748,227.6,744.692,156.411,686.6,144.5,625.042c-11.284-58.332,100.66-123.276,144.4-187.471,44.266-64.97,8.928-137.672,112.85-190.1,103.766-52.348,242.754-39.989,366.832-51.894C877.747,185.1,998.6,160.68,1081.05,182.3Z" fill="none" stroke="#e6eaf5" stroke-width="1" fill-rule="evenodd"/>
        <path id="Path_407" data-name="Path 407" d="M1081.05,182.3c81.13,21.271,81.01,80.269,113.9,125.07,35.01,47.669,116.48,85.452,84.49,145.112-32.61,60.8-136.2,121.984-247.89,159.624C929.6,646.46,828.24,619.35,720.785,640.743,590.369,666.707,469.807,751.291,348.954,748,227.6,744.692,156.411,686.6,144.5,625.042c-11.284-58.332,100.66-123.276,144.4-187.471,44.266-64.97,8.928-137.672,112.85-190.1,103.766-52.348,242.754-39.989,366.832-51.894C877.747,185.1,998.6,160.68,1081.05,182.3Z" fill="none" stroke="#e6eaf5" stroke-width="1" fill-rule="evenodd"/>
        <path id="Path_408" data-name="Path 408" d="M1003.43,239.965c64.59,16.934,64.49,63.9,90.68,99.572,27.87,37.95,92.73,68.031,67.26,115.528-25.96,48.4-108.43,97.114-197.352,127.081-81.165,27.352-161.858,5.769-247.407,22.8-103.827,20.67-199.81,88.01-296.024,85.388C323.975,687.7,267.3,641.452,257.818,592.447c-8.984-46.44,80.138-98.144,114.958-149.251,35.241-51.725,7.108-109.6,89.843-151.343,82.611-41.676,193.263-31.837,292.045-41.315C841.573,242.2,937.79,222.755,1003.43,239.965Z" fill="none" stroke="#e6eaf5" stroke-width="1" fill-rule="evenodd"/>
        <path id="Path_409" data-name="Path 409" d="M937.913,288.64c50.629,13.274,50.552,50.092,71.077,78.05,21.85,29.747,72.69,53.326,52.73,90.557-20.35,37.942-85,76.123-154.7,99.613-63.622,21.44-126.874,4.523-193.931,17.873-81.386,16.2-156.622,68.987-232.041,66.932-75.729-2.063-120.156-38.318-127.587-76.731-7.042-36.4,62.817-76.93,90.111-116.99C471.2,407.4,449.143,362.03,514,329.312c64.754-32.668,151.49-24.955,228.921-32.384C811.041,290.392,886.461,275.15,937.913,288.64Z" fill="none" stroke="#e6eaf5" stroke-width="1" fill-rule="evenodd"/>
        <path id="Path_410" data-name="Path 410" d="M886.812,326.605c39.74,10.419,39.68,39.318,55.794,61.263,17.144,23.35,57.052,41.858,41.382,71.081-15.97,29.782-66.713,59.752-121.425,78.189-49.938,16.829-99.586,3.55-152.221,14.029-63.882,12.718-122.937,54.15-182.135,52.537-59.442-1.62-94.314-30.077-100.147-60.228-5.527-28.573,49.307-60.385,70.73-91.829,21.683-31.825,4.374-67.437,55.278-93.117,50.828-25.642,118.909-19.588,179.687-25.42C787.227,327.98,846.426,316.016,886.812,326.605Z" fill="none" stroke="#e6eaf5" stroke-width="1" fill-rule="evenodd"/>
        <path id="Path_411" data-name="Path 411" d="M834.68,365.336c28.632,7.506,28.588,28.327,40.2,44.138,12.352,16.823,41.1,30.157,29.814,51.211-11.506,21.457-48.064,43.049-87.482,56.333-35.979,12.125-71.749,2.557-109.671,10.107-46.025,9.163-88.572,39.013-131.222,37.851-42.826-1.166-67.95-21.669-72.153-43.392-3.982-20.586,35.524-43.5,50.959-66.16,15.622-22.928,3.151-48.585,39.826-67.087,36.62-18.475,85.67-14.113,129.458-18.314C762.932,366.326,805.584,357.707,834.68,365.336Z" fill="none" stroke="#e6eaf5" stroke-width="1" fill-rule="evenodd"/>
        <path id="Path_412" data-name="Path 412" d="M786.643,401.024c18.4,4.823,18.368,18.2,25.826,28.359,7.937,10.808,26.41,19.375,19.156,32.9-7.392,13.786-30.881,27.659-56.206,36.194-23.116,7.79-46.1,1.643-70.462,6.493-29.571,5.887-56.907,25.066-84.309,24.319-27.516-.749-43.657-13.922-46.357-27.879-2.559-13.226,22.823-27.951,32.74-42.507,10.037-14.731,2.024-31.215,25.588-43.1,23.527-11.869,55.042-9.067,83.175-11.766C740.546,401.661,767.949,396.123,786.643,401.024Z" fill="none" stroke="#e6eaf5" stroke-width="1" fill-rule="evenodd"/>
      </g>
    </g>
  </g>
</svg>
