<svg xmlns="http://www.w3.org/2000/svg" width="42.5" height="42.7" viewBox="0 0 42.5 42.7">
  <g id="Logo_Mark" data-name="Logo Mark" transform="translate(-0.05 -2.1)">
    <g id="Group_2" data-name="Group 2">
      <g id="Layer0_0_1_STROKES_1_">
        <path id="Path_5" data-name="Path 5" d="M15.2,44.8a2.193,2.193,0,0,1-1.7-.7,2.417,2.417,0,0,1,0-3.5L38.3,15.8a2.475,2.475,0,0,1,3.5,3.5L16.9,44.1A2.193,2.193,0,0,1,15.2,44.8Zm12.4,0a2.5,2.5,0,0,1-1.4-.4l-.1-.1a2.455,2.455,0,0,1,2.7-4.1l.1.1a2.544,2.544,0,0,1,.7,3.4A2.305,2.305,0,0,1,27.6,44.8Zm-20-4.6a2.193,2.193,0,0,1-1.7-.7,2.417,2.417,0,0,1,0-3.5l6.8-6.8a2.475,2.475,0,0,1,3.5,3.5L9.4,39.5A3.4,3.4,0,0,1,7.6,40.2Zm29-4.4a2.193,2.193,0,0,1-1.7-.7,2.417,2.417,0,0,1,0-3.5l3.4-3.4a2.475,2.475,0,0,1,3.5,3.5l-3.4,3.4A2.743,2.743,0,0,1,36.6,35.8ZM2.8,32.7A2.193,2.193,0,0,1,1.1,32a2.417,2.417,0,0,1,0-3.5h0a2.417,2.417,0,0,1,3.5,0,2.417,2.417,0,0,1,0,3.5h0A3.4,3.4,0,0,1,2.8,32.7Zm18.2-6a2.193,2.193,0,0,1-1.7-.7,2.417,2.417,0,0,1,0-3.5L33.5,8.3A2.475,2.475,0,0,1,37,11.8L22.8,26A2.41,2.41,0,0,1,21,26.7ZM9.5,26a2.193,2.193,0,0,1-1.7-.7,2.417,2.417,0,0,1,0-3.5L26,3.4a2.417,2.417,0,0,1,3.5,0,2.417,2.417,0,0,1,0,3.5L11.2,25.3A2.837,2.837,0,0,1,9.5,26Zm-7-5.3A2.193,2.193,0,0,1,.8,20a2.417,2.417,0,0,1,0-3.5L8,9.4a2.475,2.475,0,0,1,3.5,3.5L4.3,20A3.4,3.4,0,0,1,2.5,20.7ZM15.8,7.4a2.476,2.476,0,0,1-2.5-2.5V4.6a2.5,2.5,0,1,1,5,0v.2A2.7,2.7,0,0,1,15.8,7.4Z" fill="#6a35ff"/>
      </g>
    </g>
  </g>
</svg>
