<svg xmlns="http://www.w3.org/2000/svg" xmlns:xlink="http://www.w3.org/1999/xlink" width="792" height="468" viewBox="0 0 792 468">
  <defs>
    <clipPath id="clip-path">
      <rect id="Rectangle_73" data-name="Rectangle 73" width="792" height="468" rx="36" transform="translate(1230.168 -2633.904)" fill="#f8faff"/>
    </clipPath>
  </defs>
  <g id="Wave_-_Values" data-name="Wave - Values" transform="translate(-1230.168 2633.904)" clip-path="url(#clip-path)">
    <g id="Group_60" data-name="Group 60" transform="translate(1230.168 -2633.904)">
      <g id="Group_52" data-name="Group 52" opacity="0.2">
        <path id="Path_310" data-name="Path 310" d="M465.65,289.425c14.753,9.409,17.3,29.155,23.433,45.55,5.708,15.255,11.487,30.109,10.973,46.394-.606,19.173,1.188,42.818-14.155,54.333-15.454,11.6-37.206-2.119-56.5-1.3-17.461.737-36.359,15.644-50.816,5.832-14.61-9.917-7.571-33.31-13.942-49.784-5.875-15.193-23.3-26.213-21.72-42.432,1.6-16.463,17.013-27.567,29.57-38.334,12.256-10.51,25.718-19.17,41.489-22.6C431.254,283.324,450.751,279.924,465.65,289.425Z" fill="none" stroke="#bcc4da" stroke-width="1" fill-rule="evenodd"/>
        <path id="Path_311" data-name="Path 311" d="M488.664,241.427c23.835,15.2,27.992,47.013,37.935,73.441,9.252,24.59,18.616,48.533,17.827,74.768-.928,30.885,2.027,68.982-22.706,87.494-24.913,18.645-60.054-3.508-91.193-2.246-28.179,1.142-58.642,25.109-82,9.266-23.605-16.013-12.3-53.68-22.627-80.237-9.521-24.491-37.665-42.287-35.162-68.412,2.541-26.517,27.387-44.367,47.625-61.681,19.755-16.9,41.46-30.818,66.9-36.3C433.137,231.512,464.6,226.083,488.664,241.427Z" fill="none" stroke="#bcc4da" stroke-width="1" fill-rule="evenodd"/>
        <path id="Path_312" data-name="Path 312" d="M510.959,194.929c32.633,20.8,38.351,64.313,51.983,100.46,12.685,33.633,25.523,66.382,24.468,102.255-1.241,42.232,2.839,94.329-30.991,119.618-34.075,25.473-82.187-4.853-124.8-3.156-38.561,1.535-80.227,34.279-112.206,12.592-32.319-21.917-16.888-73.414-31.042-109.738-13.052-33.5-51.584-57.859-48.183-93.58,3.451-36.258,37.437-60.642,65.117-84.3,27.018-23.091,56.708-42.1,91.523-49.575C434.961,181.319,478.007,173.925,510.959,194.929Z" fill="none" stroke="#bcc4da" stroke-width="1" fill-rule="evenodd"/>
        <path id="Path_313" data-name="Path 313" d="M531.1,152.931c40.578,25.864,47.707,79.939,64.671,124.863,15.785,41.8,31.761,82.505,30.466,127.083-1.524,52.481,3.572,117.223-38.474,148.635-42.351,31.639-102.178-6.069-155.154-3.98-47.94,1.89-99.725,42.562-139.492,15.6-40.189-27.251-21.028-91.239-38.641-136.385-16.242-41.632-64.156-71.924-59.945-116.313,4.274-45.055,46.514-75.341,80.916-104.727,33.578-28.682,70.481-52.292,113.76-61.565C436.609,135.983,490.121,126.815,531.1,152.931Z" fill="none" stroke="#bcc4da" stroke-width="1" fill-rule="evenodd"/>
        <path id="Path_314" data-name="Path 314" d="M549.8,113.933c47.958,30.565,56.4,94.448,76.455,147.524,18.664,49.387,37.553,97.475,36.035,150.137-1.787,62,4.253,138.481-45.423,175.577-50.036,37.366-120.741-7.2-183.341-4.744C376.875,584.647,315.7,632.68,268.7,600.814c-47.5-32.2-24.873-107.789-45.7-161.127-19.2-49.187-75.831-84.985-70.867-137.422,5.039-53.224,54.944-88.991,95.587-123.7,39.671-33.875,83.27-61.756,134.409-72.7C438.139,93.886,501.37,83.069,549.8,113.933Z" fill="none" stroke="#bcc4da" stroke-width="1" fill-rule="evenodd"/>
        <path id="Path_315" data-name="Path 315" d="M569.216,73.435c55.62,35.447,65.419,109.516,88.69,171.056,21.654,57.264,43.568,113.022,41.819,174.078-2.06,71.88,4.961,160.557-52.638,203.557-58.017,43.311-140.019-8.369-212.612-5.538-65.691,2.562-136.629,58.24-191.137,21.285-55.086-37.348-28.866-124.978-53.026-186.822-22.28-57.032-87.955-98.548-82.209-159.343,5.832-61.708,63.7-103.166,110.821-143.4,46-39.267,96.551-71.584,155.852-84.26C439.728,50.169,513.051,37.641,569.216,73.435Z" fill="none" stroke="#bcc4da" stroke-width="1" fill-rule="evenodd"/>
        <path id="Path_316" data-name="Path 316" d="M592.95,23.938C657.935,65.351,669.4,151.869,696.595,223.756c25.307,66.89,50.919,132.022,48.887,203.338-2.393,83.959,5.825,187.539-61.457,237.754-67.77,50.579-163.58-9.8-248.387-6.508-76.744,2.981-159.608,68-223.294,24.826C147.982,639.532,178.6,537.181,150.361,464.94,124.321,398.32,47.589,349.815,54.29,278.8c6.8-72.077,74.4-120.491,129.442-167.472,53.729-45.857,112.783-83.595,182.06-98.39C441.67-3.262,527.328-17.882,592.95,23.938Z" fill="none" stroke="#bcc4da" stroke-width="1" fill-rule="evenodd"/>
        <path id="Path_317" data-name="Path 317" d="M618.842-30.06c75.2,47.923,88.477,148.021,119.959,231.195,29.294,77.392,58.939,152.75,56.6,235.259-2.756,97.136,6.769,216.974-71.078,275.06-78.41,58.507-189.283-11.364-287.414-7.566-88.8,3.437-184.675,78.65-258.374,28.689-74.481-50.491-39.07-168.9-71.754-252.486C76.638,403.012-12.158,346.883-4.414,264.728,3.446,181.34,81.653,125.337,145.34,70.992c62.165-53.047,130.492-96.7,210.651-113.805C443.789-61.551,542.9-78.452,618.842-30.06Z" fill="none" stroke="#bcc4da" stroke-width="1" fill-rule="evenodd"/>
        <path id="Path_318" data-name="Path 318" d="M644.014-82.557C729.148-28.306,744.187,85,779.834,179.142c33.169,87.6,66.737,172.9,64.1,266.294-3.109,109.946,7.686,245.59-80.431,311.329-88.756,66.215-214.273-12.883-325.357-8.6-100.525,3.881-209.047,89-292.48,32.446-84.319-57.159-44.246-191.183-81.254-285.794C30.278,407.573-70.246,344.032-61.488,251.043c8.889-94.385,97.414-157.766,169.5-219.272C178.38-28.265,255.722-77.667,346.462-97.022,445.848-118.221,558.045-137.34,644.014-82.557Z" fill="none" stroke="#bcc4da" stroke-width="1" fill-rule="evenodd"/>
        <path id="Path_319" data-name="Path 319" d="M667.029-130.555C761.245-70.517,777.9,54.856,817.351,159.035c36.713,96.937,73.866,191.328,70.95,294.667-3.433,121.66,8.523,271.755-88.984,344.491C701.1,871.455,562.2,783.921,439.269,788.657c-111.242,4.286-231.328,98.469-323.662,35.879C22.293,761.282,66.629,612.983,25.667,508.29c-37.774-96.546-149.02-166.864-139.337-269.759C-103.84,134.091-5.881,63.965,73.889-4.089c77.864-66.426,163.449-121.085,263.862-142.494C447.732-170.033,571.89-191.181,667.029-130.555Z" fill="none" stroke="#bcc4da" stroke-width="1" fill-rule="evenodd"/>
        <path id="Path_320" data-name="Path 320" d="M691.482-181.552C795.347-115.367,813.711,22.832,857.212,137.67c40.477,106.857,81.44,210.905,78.232,324.816-3.775,134.1,9.415,299.554-98.07,379.723-108.263,80.75-261.394-15.747-396.907-10.535-122.63,4.718-255,108.527-356.793,39.528C-19.2,801.471,29.668,638.005-15.494,522.6-57.141,416.175-179.781,338.656-169.113,225.237-158.285,110.114-50.3,32.821,37.63-42.189,123.46-115.4,217.8-175.649,328.494-199.242,449.732-225.083,586.6-248.386,691.482-181.552Z" fill="none" stroke="#bcc4da" stroke-width="1" fill-rule="evenodd"/>
        <path id="Path_321" data-name="Path 321" d="M718.093-237.05c114.366,72.876,134.593,225.033,182.5,351.471,44.574,117.65,89.683,232.209,86.158,357.623C982.6,619.691,997.132,801.851,878.79,890.11c-119.2,88.9-287.811-17.354-437.018-11.622C306.749,883.674,161,997.959,48.924,921.986-64.347,845.206-10.554,665.235-60.287,538.172c-45.862-117.175-180.9-202.529-169.161-327.4C-217.532,84.021-98.642-1.071-1.828-83.651c94.5-80.605,198.373-146.928,320.249-172.9C451.909-284.991,602.607-310.64,718.093-237.05Z" fill="none" stroke="#bcc4da" stroke-width="1" fill-rule="evenodd"/>
      </g>
    </g>
  </g>
</svg>
