<svg xmlns="http://www.w3.org/2000/svg" width="1218.073" height="1233.996" viewBox="0 0 1218.073 1233.996">
  <g id="Wave_Purple" data-name="Wave Purple" transform="translate(162.638 240.595)">
    <g id="Group_40" data-name="Group 40" opacity="0.3">
      <path id="Path_161" data-name="Path 161" d="M533.65,334.425c14.753,9.409,17.3,29.155,23.433,45.55,5.708,15.255,11.487,30.109,10.973,46.394-.606,19.173,1.188,42.818-14.155,54.333-15.454,11.6-37.206-2.119-56.5-1.3-17.461.737-36.359,15.644-50.816,5.832-14.61-9.917-7.571-33.309-13.942-49.784-5.875-15.193-23.3-26.213-21.72-42.432,1.6-16.463,17.013-27.567,29.57-38.334,12.256-10.51,25.718-19.17,41.489-22.6C499.254,328.324,518.751,324.924,533.65,334.425Z" fill="none" stroke="#cbb8ff" stroke-width="1" fill-rule="evenodd"/>
      <path id="Path_162" data-name="Path 162" d="M556.664,286.427c23.835,15.2,27.992,47.013,37.935,73.441,9.252,24.59,18.616,48.533,17.827,74.768-.928,30.885,2.027,68.982-22.706,87.494-24.913,18.645-60.054-3.508-91.193-2.246-28.179,1.142-58.642,25.109-82,9.266-23.605-16.013-12.3-53.68-22.627-80.237-9.521-24.491-37.665-42.287-35.162-68.412,2.541-26.517,27.387-44.367,47.625-61.681,19.755-16.9,41.46-30.818,66.9-36.3C501.137,276.512,532.595,271.083,556.664,286.427Z" fill="none" stroke="#cbb8ff" stroke-width="1" fill-rule="evenodd"/>
      <path id="Path_163" data-name="Path 163" d="M578.959,239.929c32.633,20.8,38.351,64.313,51.983,100.459,12.685,33.634,25.523,66.383,24.468,102.256-1.241,42.232,2.839,94.329-30.991,119.618-34.075,25.473-82.187-4.853-124.8-3.156-38.561,1.535-80.227,34.279-112.206,12.592-32.319-21.917-16.888-73.414-31.042-109.738-13.052-33.5-51.584-57.859-48.183-93.58,3.451-36.258,37.437-60.642,65.117-84.3,27.018-23.091,56.708-42.1,91.523-49.575C502.961,226.319,546.007,218.925,578.959,239.929Z" fill="none" stroke="#cbb8ff" stroke-width="1" fill-rule="evenodd"/>
      <path id="Path_164" data-name="Path 164" d="M599.1,197.931c40.578,25.864,47.707,79.939,64.671,124.863,15.785,41.8,31.761,82.505,30.466,127.083-1.524,52.481,3.572,117.223-38.474,148.634-42.351,31.64-102.178-6.068-155.154-3.979-47.94,1.89-99.725,42.562-139.492,15.6-40.189-27.252-21.028-91.239-38.641-136.385-16.242-41.632-64.156-71.924-59.945-116.313,4.274-45.055,46.514-75.341,80.916-104.727,33.578-28.683,70.481-52.292,113.76-61.565C504.609,180.983,558.121,171.815,599.1,197.931Z" fill="none" stroke="#cbb8ff" stroke-width="1" fill-rule="evenodd"/>
      <path id="Path_165" data-name="Path 165" d="M617.8,158.933c47.958,30.565,56.4,94.448,76.455,147.524,18.664,49.387,37.553,97.475,36.035,150.137-1.787,62,4.253,138.481-45.423,175.577-50.036,37.366-120.741-7.2-183.341-4.744C444.875,629.647,383.7,677.68,336.7,645.814c-47.5-32.2-24.873-107.789-45.7-161.127-19.2-49.187-75.831-84.985-70.867-137.422,5.039-53.224,54.944-88.991,95.587-123.7,39.671-33.875,83.27-61.756,134.409-72.7C506.139,138.886,569.37,128.069,617.8,158.933Z" fill="none" stroke="#cbb8ff" stroke-width="1" fill-rule="evenodd"/>
      <path id="Path_166" data-name="Path 166" d="M637.216,118.435c55.62,35.447,65.419,109.516,88.69,171.056,21.653,57.264,43.568,113.022,41.818,174.078-2.059,71.88,4.961,160.557-52.638,203.557-58.016,43.311-140.019-8.369-212.611-5.538-65.691,2.562-136.63,58.24-191.137,21.285-55.087-37.348-28.866-124.978-53.027-186.822-22.28-57.032-87.954-98.548-82.208-159.343,5.832-61.708,63.7-103.166,110.821-143.4,46-39.267,96.551-71.584,155.852-84.26C507.728,95.169,581.051,82.641,637.216,118.435Z" fill="none" stroke="#cbb8ff" stroke-width="1" fill-rule="evenodd"/>
      <path id="Path_167" data-name="Path 167" d="M660.95,68.938c64.985,41.413,76.447,127.931,103.645,199.818,25.307,66.89,50.919,132.022,48.887,203.338-2.393,83.959,5.825,187.539-61.457,237.754-67.77,50.579-163.58-9.8-248.387-6.508-76.744,2.981-159.608,68-223.294,24.826C215.982,684.532,246.6,582.181,218.361,509.94,192.321,443.32,115.589,394.815,122.29,323.8c6.8-72.077,74.4-120.491,129.442-167.472,53.729-45.857,112.783-83.595,182.06-98.39C509.67,41.738,595.328,27.118,660.95,68.938Z" fill="none" stroke="#cbb8ff" stroke-width="1" fill-rule="evenodd"/>
      <path id="Path_168" data-name="Path 168" d="M686.841,14.94c75.2,47.923,88.478,148.021,119.96,231.195,29.293,77.392,58.939,152.75,56.6,235.259-2.756,97.136,6.768,216.974-71.078,275.06-78.411,58.507-189.283-11.364-287.414-7.566-88.8,3.437-184.675,78.65-258.374,28.689-74.481-50.491-39.07-168.9-71.755-252.486C144.637,448.012,55.842,391.883,63.586,309.728c7.86-83.388,86.066-139.391,149.754-193.736C275.5,62.945,343.831,19.293,423.991,2.186,511.788-16.551,610.9-33.452,686.841,14.94Z" fill="none" stroke="#cbb8ff" stroke-width="1" fill-rule="evenodd"/>
      <path id="Path_169" data-name="Path 169" d="M712.014-37.557C797.149,16.694,812.188,130,847.834,224.142c33.17,87.6,66.737,172.9,64.1,266.294-3.11,109.946,7.685,245.59-80.432,311.329-88.755,66.215-214.272-12.883-325.357-8.6-100.524,3.881-209.046,89-292.48,32.446-84.319-57.159-44.246-191.183-81.254-285.794C98.279,452.574-2.245,389.032,6.512,296.043c8.889-94.385,97.414-157.766,169.5-219.272C246.38,16.735,323.723-32.667,414.462-52.022,513.848-73.22,626.045-92.34,712.014-37.557Z" fill="none" stroke="#cbb8ff" stroke-width="1" fill-rule="evenodd"/>
      <path id="Path_170" data-name="Path 170" d="M735.029-85.555C829.245-25.517,845.9,99.856,885.351,204.035,922.063,300.972,959.216,395.363,956.3,498.7c-3.432,121.66,8.524,271.755-88.983,344.491-98.214,73.262-237.12-14.272-360.048-9.536-111.242,4.286-231.329,98.469-323.662,35.879-93.314-63.254-48.978-211.553-89.94-316.246C55.893,456.744-55.354,386.426-45.67,283.531c9.829-104.44,107.788-174.566,187.559-242.62C219.752-25.515,305.337-80.174,405.75-101.583,515.731-125.033,639.889-146.181,735.029-85.555Z" fill="none" stroke="#cbb8ff" stroke-width="1" fill-rule="evenodd"/>
      <path id="Path_171" data-name="Path 171" d="M759.482-136.552C863.347-70.367,881.711,67.832,925.212,182.67c40.477,106.857,81.438,210.905,78.228,324.816-3.771,134.1,9.42,299.554-98.066,379.723C797.111,967.96,643.98,871.462,508.467,876.674c-122.63,4.718-255,108.527-356.793,39.528C48.8,846.471,97.668,683.005,52.506,567.6,10.858,461.175-111.781,383.656-101.113,270.237-90.285,155.114,17.7,77.821,105.63,2.811,191.46-70.405,285.8-130.649,396.494-154.242,517.732-180.083,654.6-203.386,759.482-136.552Z" fill="none" stroke="#cbb8ff" stroke-width="1" fill-rule="evenodd"/>
      <path id="Path_172" data-name="Path 172" d="M786.093-192.05c114.366,72.876,134.593,225.033,182.5,351.471,44.57,117.65,89.68,232.209,86.16,357.623-4.15,147.647,10.38,329.807-107.96,418.066-119.2,88.9-287.811-17.354-437.018-11.622C374.749,928.674,229,1042.96,116.923,966.986,3.653,890.206,57.446,710.235,7.713,583.172-38.15,466-173.188,380.643-161.448,255.769c11.916-126.748,130.806-211.84,227.62-294.42,94.5-80.605,198.373-146.928,320.249-172.9C519.909-239.991,670.607-265.64,786.093-192.05Z" fill="none" stroke="#cbb8ff" stroke-width="1" fill-rule="evenodd"/>
    </g>
  </g>
</svg>
